# File produced by Open Asset Import Library (http://www.assimp.sf.net)
# (assimp v5.0.1588609223)

mtllib result.mtl

# 179 vertex positions
v  0 1.9171122 -0.15000001
v  -0.065082565 1.9171122 -0.13514532
v  0 1.9171122 0
v  0.065082565 1.9171122 -0.13514532
v  0.14623918 1.9171122 0.033378143
v  0.14623918 1.9171122 -0.033378143
v  0.11727472 1.9171122 -0.093523473
v  2.1684043e-17 1.9171122 0.15000001
v  0.065082565 1.9171122 0.13514532
v  0.11727472 1.9171122 0.093523473
v  -0.14623918 1.9171122 0.033378143
v  -0.11727472 1.9171122 0.093523473
v  -0.065082565 1.9171122 0.13514532
v  -0.11727472 1.9171122 -0.093523473
v  -0.14623918 1.9171122 -0.033378143
v  0.18842605 0.41711229 0.27637026
v  0.098593242 0.41711229 0.31963146
v  0 0 0
v  0.26151636 0.41711229 0.20855235
v  0.31136981 0.41711229 0.12220364
v  0.33355668 0.41711229 0.024996616
v  0.32610556 0.41711229 -0.074431472
v  0.28967854 0.41711229 -0.16724598
v  0.22751233 0.41711229 -0.24519998
v  0.14513063 0.41711229 -0.30136687
v  0.04985344 0.41711229 -0.33075598
v  4.0963453e-17 0.41711229 -0.33449197
v  -0.14513063 0.41711229 -0.30136687
v  -0.04985344 0.41711229 -0.33075598
v  -0.22751233 0.41711229 -0.24519998
v  -0.28967854 0.41711229 -0.16724598
v  -0.32610556 0.41711229 -0.074431472
v  -0.33355668 0.41711229 0.024996616
v  -0.31136981 0.41711229 0.12220364
v  -0.26151636 0.41711229 0.20855235
v  -0.18842605 0.41711229 0.27637026
v  -0.098593242 0.41711229 0.31963146
v  0 0.41711229 0.33449197
v  0.17113678 0.41711229 0.18224216
v  0.12043841 0.41711229 0.21907666
v  0.062172469 0.41711229 0.24214581
v  0 0.41711229 0.25
v  -0.062172469 0.41711229 0.24214581
v  -0.12043841 0.41711229 0.21907666
v  -0.17113678 0.41711229 0.18224216
v  -0.21108198 0.41711229 0.1339567
v  -0.23776414 0.41711229 0.077254251
v  -0.24950667 0.41711229 0.01569763
v  -0.24557181 0.41711229 -0.046845328
v  -0.22620675 0.41711229 -0.10644483
v  -0.19262831 0.41711229 -0.159356
v  -0.14694631 0.41711229 -0.20225425
v  -0.092031136 0.41711229 -0.23244412
v  -0.031333309 0.41711229 -0.24802867
v  1.3010426e-16 0.41711229 -0.33449197
v  0.031333309 0.41711229 -0.24802867
v  0.092031136 0.41711229 -0.23244412
v  0.14694631 0.41711229 -0.20225425
v  0.19262831 0.41711229 -0.159356
v  0.22620675 0.41711229 -0.10644483
v  0.24557181 0.41711229 -0.046845328
v  0.24950667 0.41711229 0.01569763
v  0.23776414 0.41711229 0.077254251
v  0.21108198 0.41711229 0.1339567
v  -0.064617515 0.51711231 -0.13429941
v  -0.055218682 0.51711231 -0.13946648
v  -0.018799985 0.51711231 -0.14881721
v  -0.088167787 0.51711231 -0.12135255
v  -0.11557699 0.51711231 -0.095613599
v  -0.14970401 0.51711231 0.0094185779
v  -0.1451723 0.51711231 0.033174623
v  -0.11701003 0.51711231 -0.093355492
v  -0.13572407 0.51711231 -0.063866898
v  -0.14568858 0.51711231 -0.033199236
v  -0.14734308 0.51711231 -0.028107196
v  -0.116382 0.51711231 0.092784934
v  -0.12664919 0.51711231 0.080374017
v  -0.14265847 0.51711231 0.04635255
v  -0.10268206 0.51711231 0.10934529
v  -0.072263055 0.51711231 0.131446
v  -0.064789444 0.51711231 0.13440502
v  -0.037303481 0.51711231 0.14528747
v  1.8369701e-17 1.9171122 0.15000001
v  0.064789444 0.51711231 0.13440502
v  0.037303481 0.51711231 0.14528747
v  1.8369701e-17 0.51711231 0.15000001
v  0.116382 0.51711231 0.092784934
v  0.10268206 0.51711231 0.10934529
v  0.072263055 0.51711231 0.131446
v  0.1451723 0.51711231 0.033174623
v  0.14265847 0.51711231 0.04635255
v  0.12664919 0.51711231 0.080374017
v  0.14970401 0.51711231 0.0094185779
v  0.14734308 0.51711231 -0.028107196
v  0.088167787 0.51711231 -0.12135255
v  0.064617515 0.51711231 -0.13429941
v  0.14568858 0.51711231 -0.033199236
v  0.13572407 0.51711231 -0.063866898
v  0.11701003 0.51711231 -0.093355492
v  0.11557699 0.51711231 -0.095613599
v  0.055218682 0.51711231 -0.13946648
v  0.018799985 0.51711231 -0.14881721
v  0 0.51711231 -0.14881721
v  -0.039196521 0.47884399 0.15266037
v  -0.075930186 0.47884399 0.13811649
v  -0.10789287 0.47884399 0.11489424
v  -0.13307625 0.47884399 0.084452756
v  -0.14989796 0.47884399 0.048704799
v  -0.15730104 0.47884399 0.0098965419
v  -0.15482031 0.47884399 -0.029533552
v  -0.14261164 0.47884399 -0.067107946
v  -0.12144217 0.47884399 -0.1004657
v  -0.092642039 0.47884399 -0.12751082
v  -0.058020867 0.47884399 -0.14654398
v  -0.019754026 0.47884399 -0.15636922
v  0.019754026 0.47884399 -0.15636922
v  0.058020867 0.47884399 -0.14654398
v  0.092642039 0.47884399 -0.12751082
v  0.12144217 0.47884399 -0.1004657
v  0.14261164 0.47884399 -0.067107946
v  0.15482031 0.47884399 -0.029533552
v  0.15730104 0.47884399 0.0098965419
v  0.14989796 0.47884399 0.048704799
v  0.13307625 0.47884399 0.084452756
v  0.10789287 0.47884399 0.11489424
v  0.075930186 0.47884399 0.13811649
v  0.039196521 0.47884399 0.15266037
v  0 0.47884399 0.15761206
v  0 0.51711231 0.15000001
v  0.044587441 0.44640163 0.17365661
v  0.086373292 0.44640163 0.15711243
v  0.12273198 0.44640163 0.1306963
v  0.15137897 0.44640163 0.096068025
v  0.17051429 0.44640163 0.055403449
v  0.17893553 0.44640163 0.011257669
v  0.17611361 0.44640163 -0.033595469
v  0.16222583 0.44640163 -0.07633768
v  0.13814481 0.44640163 -0.11428332
v  0.10538362 0.44640163 -0.14504811
v  0.066000797 0.44640163 -0.16669899
v  0.02247091 0.44640163 -0.17787556
v  -0.02247091 0.44640163 -0.17787556
v  -0.066000797 0.44640163 -0.16669899
v  -0.10538362 0.44640163 -0.14504811
v  -0.13814481 0.44640163 -0.11428332
v  -0.16222583 0.44640163 -0.07633768
v  -0.17611361 0.44640163 -0.033595469
v  -0.17893553 0.44640163 0.011257669
v  -0.17051429 0.44640163 0.055403449
v  -0.15137897 0.44640163 0.096068025
v  -0.12273198 0.44640163 0.1306963
v  -0.086373292 0.44640163 0.15711243
v  -0.044587441 0.44640163 0.17365661
v  0 0.44640163 0.17928931
v  0.052655522 0.42472434 0.20507972
v  0.1020025 0.42472434 0.18554187
v  0.14494029 0.42472434 0.15434574
v  0.17877096 0.42472434 0.1134515
v  0.20136878 0.42472434 0.065428682
v  0.21131386 0.42472434 0.013294741
v  0.2079813 0.42472434 -0.039674558
v  0.19158053 0.42472434 -0.090150952
v  0.16314204 0.42472434 -0.13496283
v  0.12445274 0.42472434 -0.17129451
v  0.077943623 0.42472434 -0.1968631
v  0.026537012 0.42472434 -0.21006209
v  -0.026537012 0.42472434 -0.21006209
v  -0.077943623 0.42472434 -0.1968631
v  -0.12445274 0.42472434 -0.17129451
v  -0.16314204 0.42472434 -0.13496283
v  -0.19158053 0.42472434 -0.090150952
v  -0.2079813 0.42472434 -0.039674558
v  -0.21131386 0.42472434 0.013294741
v  -0.20136878 0.42472434 0.065428682
v  -0.17877096 0.42472434 0.1134515
v  -0.14494029 0.42472434 0.15434574
v  -0.1020025 0.42472434 0.18554187
v  -0.052655522 0.42472434 0.20507972
v  0 0.42472434 0.21173164

# 0 UV coordinates

# 176 vertex normals
vn -4.6772437 37.698586 -92.503731
vn -46.964066 37.746983 -79.80941
vn 0 100 0
vn 50.762981 28.604603 -81.270508
vn 91.539848 37.727791 14.038168
vn 85.945511 45.25761 -23.772186
vn 66.50103 56.210907 -49.172604
vn 0 45.413105 89.093491
vn 40.783722 37.676727 83.169418
vn 74.651176 37.68856 54.834072
vn -95.052345 28.568113 12.203085
vn -68.732407 37.71167 62.078075
vn -35.747047 45.244537 81.701164
vn -72.638474 45.273598 -51.710266
vn -80.050369 56.188499 -20.851639
vn 37.256962 75.004944 54.645927
vn 19.494564 75.004944 63.199837
vn 2.6108901e-06 -99.840202 -5.6511126
vn 38.303719 87.176567 30.546194
vn 61.566292 75.004944 24.162991
vn 65.953239 75.004944 4.9425106
vn 64.479958 75.004944 -14.717132
vn 57.277344 75.004944 -33.069084
vn 33.323227 87.176567 -35.913895
vn 28.696274 75.004944 -59.58844
vn 16.743479 43.642948 -88.402199
vn -1.5896461e-07 74.714539 -66.466057
vn -28.696274 75.004936 -59.58844
vn -12.343259 74.836655 -65.169922
vn -33.323227 87.176567 -35.913895
vn -57.277344 75.004944 -33.069084
vn -64.479958 75.004944 -14.717132
vn -65.953239 75.004944 4.9425106
vn -61.566292 75.004944 24.162991
vn -38.303719 87.176567 30.546194
vn -37.256962 75.004944 54.645927
vn -19.494564 75.004944 63.199841
vn 0 75.004944 66.138168
vn 7.0095129 99.517761 6.8615189
vn 5.0829082 99.517761 8.3891478
vn 2.8369226 99.517761 9.3896542
vn 0.41268238 99.517761 9.8001738
vn -2.0374851 99.517761 9.5949125
vn -4.3596344 99.517776 8.7867708
vn -7.6881328 99.305077 8.9103374
vn -8.0534344 99.517761 5.599637
vn -9.1929913 99.517761 3.4209042
vn -9.7549248 99.517761 1.0272267
vn -9.7039165 99.517761 -1.4309963
vn -9.0431757 99.517761 -3.7993047
vn -9.3754959 99.305077 -7.1134768
vn -6.0942645 99.517761 -7.6859369
vn -3.9913859 99.517761 -8.9600506
vn -1.6377168 99.517761 -9.671174
vn 0.7017951 99.646019 -8.3772545
vn 3.2239809 99.517761 -9.2638903
vn 6.5107465 99.305077 -9.8036528
vn 7.2881088 99.517761 -6.5648427
vn 8.6917524 99.517761 -4.5461187
vn 9.5492563 99.517761 -2.2417433
vn 9.8067513 99.517761 0.20348828
vn 9.4480467 99.517761 2.6359348
vn 10.193121 99.305077 5.8823247
vn -47.847763 11.642384 -87.034737
vn -32.280796 9.853466 -94.132133
vn -12.472428 9.8452091 -98.729477
vn -58.490391 9.8888483 -80.505188
vn -73.024933 9.8819466 -67.599594
vn -99.229034 11.812826 3.7491395
vn -97.561127 11.638961 18.610771
vn -83.856796 11.660833 -53.217125
vn -90.124641 7.869936 -42.609985
vn -96.107056 10.019042 -25.749802
vn -97.711304 10.251084 -18.639124
vn -76.527847 11.636913 63.30933
vn -86.116585 9.8395367 49.870991
vn -94.645546 9.824646 30.752214
vn -68.121277 9.8580751 72.541779
vn -52.209507 9.861948 84.716644
vn -36.561905 11.647162 92.344849
vn -24.264187 7.8710289 96.691765
vn 36.561905 11.647162 92.344849
vn 22.294426 9.8223848 96.987007
vn -2.4890769 11.757541 99.275192
vn 76.527847 11.636913 63.30933
vn 65.58049 9.8296442 74.850372
vn 47.942959 9.8109074 87.207909
vn 97.561127 11.638963 18.610771
vn 93.213249 9.8459949 34.847496
vn 84.023529 9.8340864 53.322948
vn 99.315102 9.8726225 6.2483892
vn 98.595093 9.8714495 -13.47451
vn 60.361256 11.825747 -78.845871
vn 47.847767 11.642385 -87.034737
vn 94.45768 11.653323 -30.691174
vn 90.124641 7.869935 -42.609985
vn 80.929558 10.050013 -57.874035
vn 76.64209 10.290246 -63.404266
vn 36.634666 9.8169289 -92.528534
vn 16.168758 9.834074 -98.192978
vn 0 11.636211 -99.320686
vn -24.715374 35.643871 90.103638
vn -44.226833 38.287724 81.105087
vn -65.066002 35.643871 67.051697
vn -77.828957 38.287735 49.766479
vn -89.320168 35.643867 27.412066
vn -92.177216 38.287727 6.1163163
vn -91.47773 35.643871 -19.008947
vn -83.876457 35.643875 -41.161331
vn -71.38121 38.287739 -58.641041
vn -53.671871 35.643871 -76.477745
vn -34.301289 38.287735 -85.775696
vn -10.189582 35.643864 -92.87458
vn 11.264297 38.28772 -91.690598
vn 35.813469 35.643871 -86.295486
vn 54.04327 38.287731 -74.922455
vn 72.956749 35.643871 -58.368038
vn 85.180214 35.643871 -38.39069
vn 90.683792 38.287724 -17.620962
vn 93.138855 35.643875 7.3938565
vn 87.955772 38.287727 28.245893
vn 78.056183 35.643871 51.34927
vn 63.46867 38.287727 67.125076
vn 43.663452 35.643871 82.601562
vn 23.28027 38.287724 89.398422
vn 0.31639713 38.287727 92.379372
vn 18.148718 70.730759 68.32119
vn 34.56934 70.730759 61.661339
vn 48.817841 70.730751 51.127094
vn 59.998917 70.730759 37.380344
vn 67.410057 70.730751 21.284847
vn 70.585579 70.730751 3.8519409
vn 69.325943 70.730743 -13.822987
vn 63.710297 70.730759 -30.629372
vn 54.091507 70.730759 -45.511208
vn 41.073952 70.730743 -57.533394
vn 25.47555 70.730743 -65.940559
vn 8.2764454 70.730751 -70.20443
vn -9.4426966 70.730759 -70.057091
vn -26.568535 70.730743 -65.50782
vn -42.024967 70.730751 -56.842445
vn -54.840816 70.730743 -44.60545
vn -64.210823 70.730751 -29.565727
vn -69.546219 70.730743 -12.668283
vn -70.511765 70.730766 5.025146
vn -67.046799 70.730751 22.402836
vn -59.369045 70.730751 38.372875
vn -47.960915 70.730751 51.931805
vn -33.539219 70.730751 62.227665
vn -17.010132 70.730759 68.613525
vn 0.58776844 70.730743 70.688156
vn 10.259591 92.393387 36.853821
vn 19.102446 92.393387 33.144535
vn 26.745016 92.393387 27.352657
vn 32.7071 92.393372 19.842108
vn 36.614075 92.393387 11.084804
vn 38.220451 92.393387 1.6310016
vn 37.425308 92.393372 -7.9252787
vn 34.278591 92.393372 -16.983589
vn 28.978018 92.393372 -24.974752
vn 21.856647 92.393372 -31.396669
vn 13.361949 92.393372 -35.84581
vn 4.027669 92.393387 -38.042629
vn -5.5596871 92.393387 -37.849091
vn -14.797706 92.393372 -35.277359
vn -23.105927 92.393387 -30.489016
vn -29.962326 92.393372 -23.784933
vn -34.936073 92.393387 -15.586358
vn -37.714653 92.393387 -6.4084382
vn -38.123497 92.393387 3.1721487
vn -36.136894 92.393387 12.553419
vn -31.879675 92.393387 21.145912
vn -25.619347 92.393387 28.409731
vn -17.749258 92.393387 33.888458
vn -8.7639122 92.393387 37.23785
vn 0.77209646 92.393387 38.247448

# Mesh 'diamond 01' with 348 faces
g diamond 01
usemtl diamond 01
f  1//1 2//2 3//3
f  1//1 3//3 4//4
f  5//5 6//6 3//3
f  6//6 7//7 3//3
f  3//3 7//7 4//4
f  8//8 9//9 3//3
f  9//9 10//10 3//3
f  3//3 10//10 5//5
f  11//11 12//12 3//3
f  12//12 13//13 3//3
f  3//3 13//13 8//8
f  2//2 14//14 3//3
f  14//14 15//15 3//3
f  3//3 15//15 11//11
f  16//16 17//17 18//18
f  16//16 18//18 19//19
f  20//20 19//19 18//18
f  21//21 20//20 18//18
f  22//22 21//21 18//18
f  23//23 22//22 18//18
f  24//24 23//23 18//18
f  25//25 24//24 18//18
f  26//26 25//25 18//18
f  27//27 26//26 18//18
f  28//28 29//29 18//18
f  28//28 18//18 30//30
f  31//31 30//30 18//18
f  32//32 31//31 18//18
f  33//33 32//32 18//18
f  34//34 33//33 18//18
f  35//35 34//34 18//18
f  36//36 35//35 18//18
f  37//37 36//36 18//18
f  38//38 37//37 18//18
f  17//17 38//38 18//18
f  29//29 27//27 18//18
f  19//19 39//39 16//16
f  39//39 40//40 16//16
f  16//16 40//40 17//17
f  40//40 41//41 17//17
f  17//17 41//41 38//38
f  41//41 42//42 38//38
f  38//38 42//42 37//37
f  42//42 43//43 37//37
f  37//37 43//43 36//36
f  43//43 44//44 36//36
f  36//36 44//44 35//35
f  44//44 45//45 35//35
f  45//45 46//46 35//35
f  35//35 46//46 34//34
f  46//46 47//47 34//34
f  34//34 47//47 33//33
f  47//47 48//48 33//33
f  33//33 48//48 32//32
f  48//48 49//49 32//32
f  32//32 49//49 31//31
f  49//49 50//50 31//31
f  31//31 50//50 30//30
f  50//50 51//51 30//30
f  51//51 52//52 30//30
f  30//30 52//52 28//28
f  52//52 53//53 28//28
f  28//28 53//53 29//29
f  53//53 54//54 29//29
f  29//29 54//54 55//27
f  54//54 56//55 55//27
f  55//27 56//55 26//26
f  26//26 56//55 25//25
f  56//55 57//56 25//25
f  25//25 57//56 24//24
f  57//56 58//57 24//24
f  58//57 59//58 24//24
f  24//24 59//58 23//23
f  59//58 60//59 23//23
f  23//23 60//59 22//22
f  60//59 61//60 22//22
f  22//22 61//60 21//21
f  61//60 62//61 21//21
f  21//21 62//61 20//20
f  62//61 63//62 20//20
f  20//20 63//62 19//19
f  63//62 64//63 19//19
f  19//19 64//63 39//39
f  65//64 2//2 66//65
f  2//2 1//1 66//65
f  66//65 1//1 67//66
f  65//64 68//67 2//2
f  68//67 69//68 2//2
f  2//2 69//68 14//14
f  70//69 71//70 11//11
f  69//68 72//71 14//14
f  72//71 73//72 14//14
f  14//14 73//72 15//15
f  73//72 74//73 15//15
f  15//15 74//73 11//11
f  74//73 75//74 11//11
f  11//11 75//74 70//69
f  76//75 12//12 77//76
f  12//12 11//11 77//76
f  77//76 11//11 78//77
f  11//11 71//70 78//77
f  76//75 79//78 12//12
f  79//78 80//79 12//12
f  12//12 80//79 13//13
f  80//79 81//80 13//13
f  81//80 82//81 13//13
f  13//13 82//81 83//8
f  84//82 9//9 85//83
f  9//9 83//8 85//83
f  85//83 83//8 86//84
f  83//8 82//81 86//84
f  87//85 10//10 88//86
f  10//10 9//9 88//86
f  88//86 9//9 89//87
f  9//9 84//82 89//87
f  90//88 5//5 91//89
f  5//5 10//10 91//89
f  91//89 10//10 92//90
f  10//10 87//85 92//90
f  90//88 93//91 5//5
f  93//91 94//92 5//5
f  5//5 94//92 6//6
f  95//93 96//94 4//4
f  94//92 97//95 6//6
f  97//95 98//96 6//6
f  6//6 98//96 7//7
f  98//96 99//97 7//7
f  7//7 99//97 4//4
f  99//97 100//98 4//4
f  4//4 100//98 95//93
f  96//94 101//99 4//4
f  101//99 102//100 4//4
f  4//4 102//100 1//1
f  102//100 103//101 1//1
f  1//1 103//101 67//66
f  104//102 81//80 105//103
f  81//80 80//79 105//103
f  105//103 80//79 106//104
f  80//79 79//78 106//104
f  79//78 76//75 106//104
f  106//104 76//75 107//105
f  76//75 77//76 107//105
f  107//105 77//76 108//106
f  77//76 78//77 108//106
f  78//77 71//70 108//106
f  108//106 71//70 109//107
f  71//70 70//69 109//107
f  109//107 70//69 110//108
f  70//69 75//74 110//108
f  75//74 74//73 110//108
f  110//108 74//73 111//109
f  74//73 73//72 111//109
f  73//72 72//71 111//109
f  111//109 72//71 112//110
f  72//71 69//68 112//110
f  112//110 69//68 113//111
f  69//68 68//67 113//111
f  68//67 65//64 113//111
f  113//111 65//64 114//112
f  65//64 66//65 114//112
f  114//112 66//65 115//113
f  66//65 67//66 115//113
f  67//66 103//101 115//113
f  115//113 103//101 116//114
f  103//101 102//100 116//114
f  116//114 102//100 117//115
f  102//100 101//99 117//115
f  101//99 96//94 117//115
f  117//115 96//94 118//116
f  96//94 95//93 118//116
f  118//116 95//93 119//117
f  95//93 100//98 119//117
f  100//98 99//97 119//117
f  119//117 99//97 120//118
f  99//97 98//96 120//118
f  98//96 97//95 120//118
f  120//118 97//95 121//119
f  97//95 94//92 121//119
f  121//119 94//92 122//120
f  94//92 93//91 122//120
f  93//91 90//88 122//120
f  122//120 90//88 123//121
f  90//88 91//89 123//121
f  123//121 91//89 124//122
f  91//89 92//90 124//122
f  92//90 87//85 124//122
f  124//122 87//85 125//123
f  87//85 88//86 125//123
f  125//123 88//86 126//124
f  88//86 89//87 126//124
f  89//87 84//82 126//124
f  126//124 84//82 127//125
f  84//82 85//83 127//125
f  127//125 85//83 128//126
f  85//83 129//84 128//126
f  128//126 129//84 104//102
f  129//84 82//81 104//102
f  104//102 82//81 81//80
f  127//125 130//127 126//124
f  130//127 131//128 126//124
f  126//124 131//128 125//123
f  131//128 132//129 125//123
f  125//123 132//129 124//122
f  132//129 133//130 124//122
f  124//122 133//130 123//121
f  133//130 134//131 123//121
f  123//121 134//131 122//120
f  134//131 135//132 122//120
f  122//120 135//132 121//119
f  135//132 136//133 121//119
f  121//119 136//133 120//118
f  136//133 137//134 120//118
f  120//118 137//134 119//117
f  137//134 138//135 119//117
f  119//117 138//135 118//116
f  138//135 139//136 118//116
f  118//116 139//136 117//115
f  139//136 140//137 117//115
f  117//115 140//137 116//114
f  140//137 141//138 116//114
f  116//114 141//138 115//113
f  141//138 142//139 115//113
f  115//113 142//139 114//112
f  142//139 143//140 114//112
f  114//112 143//140 113//111
f  143//140 144//141 113//111
f  113//111 144//141 112//110
f  144//141 145//142 112//110
f  112//110 145//142 111//109
f  145//142 146//143 111//109
f  111//109 146//143 110//108
f  146//143 147//144 110//108
f  110//108 147//144 109//107
f  147//144 148//145 109//107
f  109//107 148//145 108//106
f  148//145 149//146 108//106
f  108//106 149//146 107//105
f  149//146 150//147 107//105
f  107//105 150//147 106//104
f  150//147 151//148 106//104
f  106//104 151//148 105//103
f  151//148 152//149 105//103
f  105//103 152//149 104//102
f  152//149 153//150 104//102
f  104//102 153//150 128//126
f  153//150 154//151 128//126
f  128//126 154//151 127//125
f  154//151 130//127 127//125
f  130//127 155//152 131//128
f  155//152 156//153 131//128
f  131//128 156//153 132//129
f  156//153 157//154 132//129
f  132//129 157//154 133//130
f  157//154 158//155 133//130
f  133//130 158//155 134//131
f  158//155 159//156 134//131
f  134//131 159//156 135//132
f  159//156 160//157 135//132
f  135//132 160//157 136//133
f  160//157 161//158 136//133
f  136//133 161//158 137//134
f  161//158 162//159 137//134
f  137//134 162//159 138//135
f  162//159 163//160 138//135
f  138//135 163//160 139//136
f  163//160 164//161 139//136
f  139//136 164//161 140//137
f  164//161 165//162 140//137
f  140//137 165//162 141//138
f  165//162 166//163 141//138
f  141//138 166//163 142//139
f  166//163 167//164 142//139
f  142//139 167//164 143//140
f  167//164 168//165 143//140
f  143//140 168//165 144//141
f  168//165 169//166 144//141
f  144//141 169//166 145//142
f  169//166 170//167 145//142
f  145//142 170//167 146//143
f  170//167 171//168 146//143
f  146//143 171//168 147//144
f  171//168 172//169 147//144
f  147//144 172//169 148//145
f  172//169 173//170 148//145
f  148//145 173//170 149//146
f  173//170 174//171 149//146
f  149//146 174//171 150//147
f  174//171 175//172 150//147
f  150//147 175//172 151//148
f  175//172 176//173 151//148
f  151//148 176//173 152//149
f  176//173 177//174 152//149
f  152//149 177//174 153//150
f  177//174 178//175 153//150
f  153//150 178//175 154//151
f  178//175 179//176 154//151
f  154//151 179//176 130//127
f  179//176 155//152 130//127
f  155//152 41//41 156//153
f  41//41 40//40 156//153
f  156//153 40//40 157//154
f  40//40 39//39 157//154
f  157//154 39//39 158//155
f  39//39 64//63 158//155
f  158//155 64//63 159//156
f  64//63 63//62 159//156
f  159//156 63//62 160//157
f  63//62 62//61 160//157
f  160//157 62//61 161//158
f  62//61 61//60 161//158
f  161//158 61//60 162//159
f  61//60 60//59 162//159
f  162//159 60//59 163//160
f  60//59 59//58 163//160
f  163//160 59//58 164//161
f  59//58 58//57 164//161
f  164//161 58//57 165//162
f  58//57 57//56 165//162
f  165//162 57//56 166//163
f  57//56 56//55 166//163
f  166//163 56//55 167//164
f  56//55 54//54 167//164
f  167//164 54//54 168//165
f  54//54 53//53 168//165
f  168//165 53//53 169//166
f  53//53 52//52 169//166
f  169//166 52//52 170//167
f  52//52 51//51 170//167
f  170//167 51//51 171//168
f  51//51 50//50 171//168
f  171//168 50//50 172//169
f  50//50 49//49 172//169
f  172//169 49//49 173//170
f  49//49 48//48 173//170
f  173//170 48//48 174//171
f  48//48 47//47 174//171
f  174//171 47//47 175//172
f  47//47 46//46 175//172
f  175//172 46//46 176//173
f  46//46 45//45 176//173
f  176//173 45//45 177//174
f  45//45 44//44 177//174
f  177//174 44//44 178//175
f  44//44 43//43 178//175
f  178//175 43//43 179//176
f  43//43 42//42 179//176
f  179//176 42//42 155//152
f  42//42 41//41 155//152

