# File produced by Open Asset Import Library (http://www.assimp.sf.net)
# (assimp v5.0.1588609223)

mtllib result.mtl

# 14 vertex positions
v  -0.24865977 -0.10996755 0.0034880862
v  -0.24902333 -0.10949037 0.0034880862
v  -0.24865977 -0.10996755 0.0037153137
v  -0.24902333 -0.10949037 0.0037153137
v  -0.24885291 -0.10996755 0.0034880862
v  -0.24885291 -0.10996755 0.0037153137
v  -0.24885291 -0.11167175 0.0034880859
v  -0.24885291 -0.11167175 0.0037153135
v  -0.24919376 -0.11167175 0.0034880859
v  -0.24919376 -0.11167175 0.0037153135
v  -0.24919376 -0.10996755 0.0034880862
v  -0.24919376 -0.10996755 0.0037153137
v  -0.24938689 -0.10996755 0.0034880862
v  -0.24938689 -0.10996755 0.0037153137

# 0 UV coordinates

# 14 vertex normals
vn 0.047790948 -0.083751388 -0.06008178
vn 0.025124369 0.057427138 -0.094757468
vn 0.095581882 0.012742522 0.060081765
vn -0.025124369 0.057427123 0.094757482
vn 0.049585111 -0.024792546 -0.099170223
vn 0.030364556 -0.06072912 0.091093659
vn 0.046382625 -0.092765242 -0.046382632
vn 0.075742513 -0.037871264 0.075742513
vn -0.075742513 -0.037871249 -0.075742513
vn -0.046382625 -0.092765257 0.046382617
vn -0.030364556 -0.060729105 -0.091093674
vn -0.049585111 -0.024792565 0.099170223
vn -0.095581882 0.012742533 -0.060081765
vn -0.047790948 -0.083751403 0.060081765

# Mesh 'mesh_id8' with 24 faces
g mesh_id8
usemtl Material_51
f  1//1 2//2 3//3
f  2//2 4//4 3//3
f  5//5 1//1 6//6
f  1//1 3//3 6//6
f  7//7 5//5 8//8
f  5//5 6//6 8//8
f  9//9 7//7 10//10
f  7//7 8//8 10//10
f  11//11 9//9 12//12
f  9//9 10//10 12//12
f  13//13 11//11 14//14
f  11//11 12//12 14//14
f  2//2 13//13 4//4
f  13//13 14//14 4//4
f  2//2 1//1 5//5
f  7//7 9//9 5//5
f  9//9 11//11 5//5
f  5//5 11//11 2//2
f  11//11 13//13 2//2
f  4//4 14//14 12//12
f  10//10 8//8 12//12
f  8//8 6//6 12//12
f  12//12 6//6 4//4
f  6//6 3//3 4//4

