# File produced by Open Asset Import Library (http://www.assimp.sf.net)
# (assimp v5.0.1588609223)

mtllib result.mtl

# 16 vertex positions
v  0.31999999 0.41999999 0.2
v  -4.3368087e-17 0 0.2
v  0.31999999 0.41999999 0
v  -4.3368087e-17 0 0
v  0.15000001 0.41999999 0.2
v  0.15000001 0.41999999 0
v  0.15000001 1.9200001 0.2
v  0.15000001 1.9200001 0
v  -0.15000001 1.9200001 0.2
v  -0.15000001 1.9200001 0
v  -0.15000001 0.41999999 0.2
v  -0.15000001 0.41999999 0
v  -0.31999999 0.41999999 0.2
v  -0.31999999 0.41999999 0
v  0 0 0.2
v  0 0 0

# 0 UV coordinates

# 14 vertex normals
vn 42.0644 73.715881 52.882473
vn 22.113842 -50.545925 83.403168
vn 84.128784 -11.215654 -52.882469
vn -22.113842 -50.545925 -83.403168
vn 43.643578 21.821789 87.287155
vn 26.726124 53.452248 -80.178368
vn 40.824829 81.649658 40.824829
vn 66.666672 33.333336 -66.666672
vn -66.666672 33.333336 66.666672
vn -40.824829 81.649658 -40.824829
vn -26.726124 53.452248 80.178368
vn -43.643578 21.821789 -87.287155
vn -84.128784 -11.215654 52.882469
vn -42.0644 73.715881 -52.882473

# Mesh 'diamond 01' with 24 faces
g diamond 01
usemtl diamond 01
f  1//1 2//2 3//3
f  2//2 4//4 3//3
f  5//5 1//1 6//6
f  1//1 3//3 6//6
f  7//7 5//5 8//8
f  5//5 6//6 8//8
f  9//9 7//7 10//10
f  7//7 8//8 10//10
f  11//11 9//9 12//12
f  9//9 10//10 12//12
f  13//13 11//11 14//14
f  11//11 12//12 14//14
f  15//2 13//13 16//4
f  13//13 14//14 16//4
f  15//2 1//1 5//5
f  7//7 9//9 5//5
f  9//9 11//11 5//5
f  5//5 11//11 15//2
f  11//11 13//13 15//2
f  16//4 14//14 12//12
f  10//10 8//8 12//12
f  8//8 6//6 12//12
f  12//12 6//6 16//4
f  6//6 3//3 16//4

